<svg width="209" height="75" viewBox="0 0 209 75" fill="none" xmlns="http://www.w3.org/2000/svg">
<path d="M179.673 40.8602C179.476 43.6735 177.995 48.9875 170.302 52.8065C159.382 58.2292 142.917 51.6445 142.088 45.8752C141.259 40.0991 140.049 49.8029 130.379 52.8065C120.716 55.8101 92.6242 55.4839 87.7859 46.8877C87.3917 46.1878 87.0451 45.651 86.7325 45.25C85.5909 43.789 84.891 44.1628 84.1775 45.4267C82.6553 48.0905 81.0176 54.7228 74.7998 56.4149C64.831 59.133 44.8933 56.4488 42.4742 52.8065C40.055 49.1642 21.9318 60.7503 14.9869 57.5225C13.288 56.7342 12.2279 55.8984 11.596 55.0966C14.4568 53.9685 17.1206 53.1395 18.602 52.8065C21.925 52.0522 26.4031 50.7611 30.4328 49.069C33.912 47.608 37.0515 45.8548 38.8251 43.891C42.6577 39.6506 38.2339 26.5084 55.467 18.5102C71.7827 10.9401 83.1514 36.1238 86.7393 22.6758C89.6002 11.9594 94.7375 2.0042 108.383 0.502424C126.635 -1.51581 133.614 2.49347 140.62 13.4884C147.626 24.4833 144.242 34.5949 154.054 27.6364C169.045 17.0152 180.944 26.2298 179.619 38.9507C179.551 39.6099 179.571 40.2486 179.673 40.8602Z" fill="#E6E7E8"/>
<path d="M183.601 71.5346C178.776 70.9842 154.224 68.2456 143.902 71.8812C133.58 75.5167 119.432 74.144 109.993 73.4373C100.561 72.7306 69.6014 68.2456 57.5124 71.8812C45.4234 75.5167 14.9937 69.5571 10.6311 68.7825C-8.66782 65.3576 2.45625 58.6981 11.5892 55.1034C12.2212 55.912 13.2881 56.7411 14.9801 57.5293C21.925 60.7571 40.0551 49.171 42.4675 52.8133C44.8866 56.4557 64.8175 59.1398 74.7931 56.4217C81.0109 54.7228 82.6418 48.0905 84.1708 45.4335C84.8911 44.1764 85.5842 43.8026 86.7258 45.2569C87.0384 45.6578 87.385 46.1946 87.7791 46.8945C92.6106 55.4907 120.703 55.8169 130.373 52.8133C140.042 49.8098 141.245 40.1127 142.081 45.882C142.91 51.6513 159.375 58.2292 170.295 52.8133C177.988 48.9943 179.469 43.6735 179.666 40.867C180.889 48.1041 193.753 51.4271 205.448 59.4796C218.135 68.2117 188.419 72.0782 183.601 71.5346Z" fill="#D0D2D3"/>
<path d="M98.1148 8.8472C100.711 6.57075 114.845 -0.442088 121.015 3.74387C127.179 7.92983 110.007 9.49277 105.162 13.5564C100.316 17.62 91.2922 14.8271 98.1148 8.8472Z" fill="#F1F1F2"/>
<path d="M49.9628 26.6782C51.7228 24.4289 61.3111 17.4976 65.4903 21.6292C69.6694 25.7676 58.0289 27.317 54.74 31.3331C51.4578 35.3491 45.3351 32.597 49.9628 26.6782Z" fill="#F1F1F2"/>
</svg>
