<svg width="275" height="109" viewBox="0 0 275 109" fill="none" xmlns="http://www.w3.org/2000/svg">
<path d="M245.642 81.3062C245.642 81.3062 245.642 81.3166 245.631 81.3166C245.204 81.7967 228.371 100.487 211.339 91.8254C204.295 88.246 201.029 84.6665 199.422 81.5566C197.084 77.0484 198.211 73.5107 196.27 72.3836C194.663 71.4444 193.64 76.2657 189.351 81.6193C184.885 87.192 176.87 93.3282 160.935 94.1213C135.826 95.3736 128.072 85.1674 124.149 81.9741C123.188 81.1914 122.458 80.8261 121.759 81.1497C121.362 81.3375 121.018 81.6193 120.705 81.9949C118.273 84.8857 117.71 92.7021 103.12 94.2257C86.6841 95.9476 83.1255 89.1017 78.1894 90.7401C73.2637 92.3785 73.535 100.873 55.7212 100.873C37.9073 100.873 20.7404 98.7548 24.5391 89.9574C26.3132 88.246 27.795 85.2509 30.9779 82.475C33.3364 80.4191 36.655 78.4781 41.7372 77.2675C56.5247 73.7611 61.9618 78.7599 65.5412 82.2871C67.4719 84.176 68.8598 85.6475 70.8948 85.1466C72.7211 84.7082 73.6916 83.6647 74.2342 82.235C76.3423 76.7562 72.3245 65.6108 88.2391 61.113C103.068 56.9178 115.174 82.3602 123.241 43.3408C131.307 4.32146 168.135 -7.81534 191.47 4.7702C221.42 20.9248 202.48 44.8331 214.71 45.7515C220.095 46.1481 233.62 35.9001 246.226 53.6305C255.128 66.1639 248.407 75.4726 245.642 81.3062Z" fill="#E6E7E8"/>
<path d="M219.031 105.642C197.199 102.199 160.371 104.714 139.061 107.604C117.751 110.495 93.3213 104.192 80.3287 104.714C67.3362 105.235 4.97199 110.954 0.870732 104.714C-3.22009 98.473 7.66442 92.9108 21.784 91.3558C22.8798 91.2411 23.7251 90.7297 24.5286 89.9574C20.7404 98.7652 37.9073 100.873 55.7107 100.873C73.5246 100.873 73.2428 92.3785 78.179 90.7401C83.1047 89.1017 86.6737 95.9476 103.11 94.2257C117.699 92.7021 118.263 84.8857 120.694 81.995C120.997 81.6193 121.341 81.3375 121.748 81.1497C122.448 80.8261 123.178 81.1914 124.138 81.9741C128.062 85.1674 135.826 95.3736 160.924 94.1213C176.86 93.3282 184.874 87.192 189.341 81.6193C193.63 76.2657 194.653 71.4444 196.26 72.3836C198.201 73.5211 197.074 77.0484 199.411 81.5566C201.019 84.6769 204.285 88.246 211.329 91.8255C228.371 100.487 245.193 81.7862 245.621 81.3166C244.358 83.9882 243.93 85.9292 246.205 87.1189C253.479 90.9071 273.933 86.5658 274.966 95.3945C276.031 104.234 240.873 109.086 219.031 105.642Z" fill="#D0D2D3"/>
<path d="M124.138 81.9741L189.341 81.6193C184.874 87.192 176.86 93.3283 160.924 94.1214C135.826 95.3632 128.072 85.1675 124.138 81.9741Z" fill="#E6E7E8"/>
<path d="M245.642 81.3062C245.642 81.3062 245.642 81.3166 245.631 81.3166C245.204 81.7967 228.371 100.487 211.339 91.8255C204.295 88.246 201.029 84.6665 199.422 81.5567L245.642 81.3062Z" fill="#E6E7E8"/>
<path d="M147.88 15.4355C150.802 12.8683 166.727 4.97888 173.666 9.68542C180.606 14.392 161.269 16.166 155.811 20.7369C150.353 25.3078 140.188 22.1666 147.88 15.4355Z" fill="#F1F1F2"/>
</svg>
