<svg width="84" height="75" viewBox="0 0 84 75" fill="none" xmlns="http://www.w3.org/2000/svg">
<g filter="url(#filter0_d)">
<path d="M20.7794 23.2544C17.8747 21.588 14.3161 18.8974 19.763 11.4505C26.4023 17.8561 23.3558 21.1166 20.7794 23.2544Z" fill="#FFE26B"/>
<path d="M22.4877 53.8429C20.5285 55.1902 18.0874 56.5939 15.3495 55.7548C13.6122 53.2822 12.215 50.5548 11.2249 47.6383C19.7721 45.4072 21.5528 50.1017 22.4877 53.8429Z" fill="#FEB247"/>
<path d="M10.1106 33.315C19.0926 35.4219 18.1435 39.7813 17.0239 42.9368C13.6762 42.9912 9.24166 42.4999 10.1106 33.315Z" fill="#FEB247"/>
<path d="M17.5346 31.7741C14.3213 31.1425 10.1796 29.7676 12.886 21.1599C21.0472 25.0075 19.2495 28.9837 17.5346 31.7741Z" fill="#FFE26B"/>
<path d="M72.1656 47.6383C71.1754 50.5535 69.7783 53.2809 68.041 55.7535C65.303 56.5953 62.8619 55.1902 60.9014 53.8429C61.8363 50.1004 63.617 45.4072 72.1656 47.6383Z" fill="#FEB247"/>
<path d="M73.2783 33.315C64.2963 35.4219 65.2454 39.7813 66.365 42.9368C69.7127 42.9912 74.1471 42.4999 73.2783 33.315Z" fill="#FEB247"/>
<path d="M20.7794 23.2544C17.8747 21.588 14.3161 18.8974 19.763 11.4505L20.7794 23.2544Z" fill="#FEB247"/>
<path d="M63.6261 11.4501C56.987 17.8563 60.0332 21.1161 62.6096 23.2544C65.5138 21.588 69.0724 18.897 63.6261 11.4501Z" fill="#FEB247"/>
<path d="M70.5028 21.1594C62.3412 25.008 64.1389 28.9842 65.8538 31.7741C69.0672 31.1428 73.2086 29.7678 70.5028 21.1594Z" fill="#FEB247"/>
<path d="M36.2181 60.4441L35.7336 62.5031L35.6167 62.9995C29.9203 61.6587 24.7557 58.3916 21.0749 53.8009C17.3364 49.1392 15.2773 43.2734 15.2773 37.2854C15.2773 31.2974 17.3364 25.4329 21.0749 20.7712C24.7557 16.1792 29.9203 12.9121 35.6167 11.5713L35.7336 12.0677L36.2181 14.1267C31.0903 15.3348 26.4391 18.2776 23.1234 22.414C19.7079 26.6725 17.9036 31.8148 17.9036 37.2854C17.9036 42.756 19.7079 47.8996 23.1234 52.1581C26.4391 56.2932 31.0903 59.236 36.2181 60.4441Z" fill="#FEB247"/>
<path d="M36.2181 60.4441L35.7335 62.5031C30.758 60.9444 26.2868 57.9005 22.9999 53.8009C19.2614 49.1392 17.2024 43.2734 17.2024 37.2854C17.2024 31.2974 19.2614 25.4329 22.9999 20.7712C26.2868 16.6703 30.758 13.6264 35.7335 12.0677L36.2181 14.1267C31.0903 15.3348 26.4391 18.2776 23.1234 22.414C19.7079 26.6725 17.9036 31.8148 17.9036 37.2854C17.9036 42.756 19.7079 47.8996 23.1234 52.1581C26.4391 56.2932 31.0903 59.236 36.2181 60.4441Z" fill="#FFE26B"/>
<path d="M47.7727 63L47.1708 60.4436C52.2991 59.2359 56.9499 56.2932 60.2665 52.1576C63.6816 47.8992 65.4868 42.7564 65.4868 37.2854C65.4868 31.815 63.6816 26.6723 60.2665 22.4136C56.9498 18.2776 52.299 15.3348 47.1708 14.1271L47.7727 11.5707C53.4689 12.9121 58.6336 16.1793 62.3154 20.7705C66.0542 25.4327 68.1131 31.2977 68.1131 37.2853C68.1131 43.2734 66.0541 49.1385 62.3154 53.8006C58.6338 58.3915 53.469 61.6586 47.7727 63Z" fill="#FFE26B"/>
<path d="M27.4475 58.5637C24.1003 55.9557 20.1136 51.9441 28.2748 43.5701C35.4643 52.7924 31.0613 56.3392 27.4475 58.5637Z" fill="#FEB247"/>
<path d="M19.3271 48.8555C16.6719 45.9193 13.6569 41.5925 22.5036 35.2132C27.6236 44.8452 23.0065 47.3953 19.3271 48.8555Z" fill="#FEB247"/>
<path d="M25.3951 25.8137C25.2559 35.5534 20.5456 35.5612 17.0382 35.1213C16.224 31.6809 15.7264 26.9969 25.3951 25.8137Z" fill="#FEB247"/>
<path d="M31.0941 20.0319C26.6307 25.7546 23.8298 23.6405 21.9441 21.8008C23.0077 19.3924 24.8199 16.3866 31.0941 20.0319Z" fill="#FEB247"/>
<path d="M27.4475 58.5637L28.2748 43.5701C35.4643 52.7924 31.0613 56.3392 27.4475 58.5637Z" fill="#FFE26B"/>
<path d="M19.327 48.8555L22.5035 35.2132C27.6235 44.8452 23.0065 47.3953 19.327 48.8555Z" fill="#FFE26B"/>
<path d="M25.3951 25.8137C25.2559 35.5534 20.5456 35.5612 17.0382 35.1213L25.3951 25.8137Z" fill="#FFE26B"/>
<path d="M31.0941 20.0319C26.6307 25.7546 23.8298 23.6405 21.9441 21.8008L31.0941 20.0319Z" fill="#FFE26B"/>
<path d="M47.1708 60.4441L47.6553 62.5031C52.6308 60.9444 57.1021 57.9005 60.3889 53.8009C64.1275 49.1392 66.1865 43.2734 66.1865 37.2854C66.1865 31.2974 64.1275 25.4329 60.3889 20.7712C57.1021 16.6703 52.6308 13.6264 47.6553 12.0677L47.1708 14.1267C52.2986 15.3348 56.9498 18.2776 60.2655 22.414C63.681 26.6725 65.4853 31.8148 65.4853 37.2854C65.4853 42.756 63.681 47.8996 60.2655 52.1581C56.9498 56.2932 52.2986 59.236 47.1708 60.4441Z" fill="#FEB247"/>
<path d="M55.9414 58.5637C59.2886 55.9557 63.2753 51.9441 55.1141 43.5701C47.9246 52.7924 52.3276 56.3392 55.9414 58.5637Z" fill="#FFE26B"/>
<path d="M64.0619 48.8555C66.7171 45.9193 69.732 41.5925 60.8854 35.2132C55.7654 44.8452 60.3824 47.3953 64.0619 48.8555Z" fill="#FFE26B"/>
<path d="M57.9938 25.8137C58.133 35.5534 62.8432 35.5612 66.3506 35.1213C67.1648 31.6809 67.6625 26.9969 57.9938 25.8137Z" fill="#FFE26B"/>
<path d="M52.2947 20.0319C56.7581 25.7546 59.559 23.6405 61.4447 21.8008C60.3811 19.3924 58.5689 16.3866 52.2947 20.0319Z" fill="#FFE26B"/>
<path d="M55.9414 58.5637L55.1141 43.5701C47.9246 52.7924 52.3276 56.3392 55.9414 58.5637Z" fill="#FEB247"/>
<path d="M64.0619 48.8555L60.8854 35.2132C55.7654 44.8452 60.3824 47.3953 64.0619 48.8555Z" fill="#FEB247"/>
<path d="M57.9938 25.8137C58.133 35.5534 62.8432 35.5612 66.3507 35.1213L57.9938 25.8137Z" fill="#FEB247"/>
<path d="M52.2947 20.0319C56.7581 25.7546 59.559 23.6405 61.4447 21.8008L52.2947 20.0319Z" fill="#FEB247"/>
<path d="M17.5346 31.7741C14.3213 31.1425 10.1796 29.7676 12.886 21.1599L17.5346 31.7741Z" fill="#FEB247"/>
<path d="M62.6097 23.2544C65.5144 21.588 69.0731 18.8974 63.6261 11.4505L62.6097 23.2544Z" fill="#FFE26B"/>
<path d="M65.8545 31.7741C69.0678 31.1425 73.2094 29.7676 70.503 21.1599L65.8545 31.7741Z" fill="#FFE26B"/>
<path d="M42.5422 16.0621L41.2179 16.3328L40.1739 11.7314L38.7335 16.2361H38.3855L36.9452 11.7314L35.8915 16.3328L34.5671 16.0621L36.6455 8H36.9838L38.5595 12.7947L40.1352 8H40.4639L42.5422 16.0621Z" fill="#2E3D52"/>
<path d="M48.4895 16.1394H43.4145V8.09667H44.6712V14.9407H47.2329V8.09667H48.4895V16.1394Z" fill="#2E3D52"/>
<path d="M47.6036 32.034L45.6171 32.44L44.0511 25.5379L41.8906 32.295H41.3686L39.208 25.5379L37.6275 32.44L35.641 32.034L38.7585 19.9409H39.266L41.6296 27.1329L43.9931 19.9409H44.4861L47.6036 32.034Z" fill="white"/>
<path d="M45.6424 43.0106L39.9583 46.9836L38.8418 45.4756L42.7278 42.8366L37.6818 38.1241L43.2788 34.2815L44.4533 35.7605L40.5963 38.2981L45.6424 43.0106Z" fill="white"/>
<path d="M46.0289 54.2917L39.8228 58.3808V61.1503H37.9378L37.9523 48.7962H38.3873L46.0289 54.2917ZM42.9983 54.2482L39.8228 51.9717V56.3072L42.9983 54.2482Z" fill="white"/>
</g>
<defs>
<filter id="filter0_d" x="0" y="0" width="83.3889" height="75" filterUnits="userSpaceOnUse" color-interpolation-filters="sRGB">
<feFlood flood-opacity="0" result="BackgroundImageFix"/>
<feColorMatrix in="SourceAlpha" type="matrix" values="0 0 0 0 0 0 0 0 0 0 0 0 0 0 0 0 0 0 127 0"/>
<feOffset dy="2"/>
<feGaussianBlur stdDeviation="5"/>
<feColorMatrix type="matrix" values="0 0 0 0 1 0 0 0 0 0.819608 0 0 0 0 0.458824 0 0 0 0.44 0"/>
<feBlend mode="normal" in2="BackgroundImageFix" result="effect1_dropShadow"/>
<feBlend mode="normal" in="SourceGraphic" in2="effect1_dropShadow" result="shape"/>
</filter>
</defs>
</svg>
