<svg width="32" height="32" viewBox="0 0 32 32" fill="none" xmlns="http://www.w3.org/2000/svg">
<path d="M32 15.9183C32 7.12684 24.8366 0 16 0C7.16344 0 0 7.12684 0 15.9183C0 23.8634 5.85094 30.449 13.5 31.6431V20.5196H9.4375V15.9183H13.5V12.4113C13.5 8.42176 15.8888 6.21807 19.5434 6.21807C21.2941 6.21807 23.125 6.52897 23.125 6.52897V10.4464H21.1075C19.12 10.4464 18.5 11.6735 18.5 12.9323V15.9183H22.9375L22.2281 20.5196H18.5V31.6431C26.1491 30.449 32 23.8634 32 15.9183Z" fill="#1877F2"/>
<path d="M22.2281 20.6831L22.9375 16.0817H18.5V13.0958C18.5 11.837 19.12 10.6098 21.1075 10.6098H23.125V6.69243C23.125 6.69243 21.2941 6.38153 19.5434 6.38153C15.8888 6.38153 13.5 8.58522 13.5 12.5747V16.0817H9.4375V20.6831H13.5V31.8066C14.3147 31.9338 15.1494 32 16 32C16.8506 32 17.6853 31.9338 18.5 31.8066V20.6831H22.2281Z" fill="white"/>
</svg>
