<svg width="437" height="258" viewBox="0 0 437 258" fill="none" xmlns="http://www.w3.org/2000/svg">
<path d="M437 258H319.373L353.061 124.959H405.02L437 258Z" fill="url(#paint0_linear)"/>
<path d="M405.02 124.959L402.985 207.661L388.775 170.929L385.804 227.731L373.077 202.534L347.407 258H437L405.02 124.959Z" fill="url(#paint1_linear)"/>
<path d="M385.803 124.959L376.471 185.238L361.406 139.324L325.904 232.197L353.061 124.959H385.803Z" fill="url(#paint2_linear)"/>
<path d="M126.248 258L178.652 0H259.482L309.222 258" fill="url(#paint3_linear)"/>
<path d="M265.691 32.1968L256.023 195.34L231.038 154.47L208.556 211.055L186.07 182.765L126.248 258H309.222L265.691 32.1968Z" fill="url(#paint4_linear)"/>
<path d="M147.256 154.581L201.686 23.0704V99.7714L240.261 17.4114L247.922 55.1331L259.482 0H178.653L147.256 154.581Z" fill="url(#paint5_linear)"/>
<path d="M52.4136 258L104.818 61.1389H185.647L235.388 258" fill="url(#paint6_linear)"/>
<path d="M191.852 85.7072L182.189 210.186L157.204 179.006L134.722 222.179L112.235 200.592L52.4136 258H235.388L191.852 85.7072Z" fill="url(#paint7_linear)"/>
<path d="M73.4211 179.089L127.851 78.7398V137.271L166.426 74.4263L174.087 103.206L185.647 61.1389H104.818L73.4211 179.089Z" fill="url(#paint8_linear)"/>
<path d="M117.627 258H0L33.6885 145.098H85.652L117.627 258Z" fill="url(#paint9_linear)"/>
<path d="M85.6519 145.098L83.6127 215.281L69.4024 184.11L66.4309 232.313L53.7041 210.93L28.0347 258H117.627L85.6519 145.098Z" fill="url(#paint10_linear)"/>
<path d="M66.4309 145.098L57.0983 196.251L42.0383 157.29L6.53564 236.104L33.6885 145.098H66.4309Z" fill="url(#paint11_linear)"/>
<path d="M240.261 258L279.764 63.1176H340.693L378.184 258" fill="url(#paint12_linear)"/>
<path d="M378.184 258L340.693 63.1176L338.304 184.258L321.637 130.456L318.155 213.662L303.233 176.754L273.132 258H378.184Z" fill="url(#paint13_linear)"/>
<path d="M318.155 63.1176L307.211 151.414L289.551 84.1584L247.922 220.204L279.764 63.1176H318.155Z" fill="url(#paint14_linear)"/>
<defs>
<linearGradient id="paint0_linear" x1="378.185" y1="258" x2="378.185" y2="124.96" gradientUnits="userSpaceOnUse">
<stop stop-color="#2E3D52"/>
<stop offset="0.209" stop-color="#36465C"/>
<stop offset="0.6008" stop-color="#495F7A"/>
<stop offset="1" stop-color="#6280A3"/>
</linearGradient>
<linearGradient id="paint1_linear" x1="392.202" y1="258" x2="392.202" y2="124.96" gradientUnits="userSpaceOnUse">
<stop stop-color="#2E3D52"/>
<stop offset="0.209" stop-color="#36465C"/>
<stop offset="0.6008" stop-color="#495F7A"/>
<stop offset="1" stop-color="#6280A3"/>
</linearGradient>
<linearGradient id="paint2_linear" x1="355.854" y1="232.198" x2="355.854" y2="124.96" gradientUnits="userSpaceOnUse">
<stop stop-color="#2E3D52"/>
<stop offset="0.209" stop-color="#36465C"/>
<stop offset="0.6008" stop-color="#495F7A"/>
<stop offset="1" stop-color="#6280A3"/>
</linearGradient>
<linearGradient id="paint3_linear" x1="217.736" y1="258" x2="217.736" y2="0" gradientUnits="userSpaceOnUse">
<stop stop-color="#2E3D52"/>
<stop offset="0.209" stop-color="#36465C"/>
<stop offset="0.6008" stop-color="#495F7A"/>
<stop offset="1" stop-color="#6280A3"/>
</linearGradient>
<linearGradient id="paint4_linear" x1="217.736" y1="258" x2="217.736" y2="32.1981" gradientUnits="userSpaceOnUse">
<stop stop-color="#2E3D52"/>
<stop offset="0.209" stop-color="#36465C"/>
<stop offset="0.6008" stop-color="#495F7A"/>
<stop offset="1" stop-color="#6280A3"/>
</linearGradient>
<linearGradient id="paint5_linear" x1="203.369" y1="154.581" x2="203.369" y2="0" gradientUnits="userSpaceOnUse">
<stop stop-color="#2E3D52"/>
<stop offset="0.209" stop-color="#36465C"/>
<stop offset="0.6008" stop-color="#495F7A"/>
<stop offset="1" stop-color="#6280A3"/>
</linearGradient>
<linearGradient id="paint6_linear" x1="143.901" y1="258" x2="143.901" y2="61.1393" gradientUnits="userSpaceOnUse">
<stop stop-color="#2E3D52"/>
<stop offset="0.209" stop-color="#36465C"/>
<stop offset="0.6008" stop-color="#495F7A"/>
<stop offset="1" stop-color="#6280A3"/>
</linearGradient>
<linearGradient id="paint7_linear" x1="143.901" y1="258" x2="143.901" y2="85.7073" gradientUnits="userSpaceOnUse">
<stop stop-color="#2E3D52"/>
<stop offset="0.209" stop-color="#36465C"/>
<stop offset="0.6008" stop-color="#495F7A"/>
<stop offset="1" stop-color="#6280A3"/>
</linearGradient>
<linearGradient id="paint8_linear" x1="129.534" y1="179.089" x2="129.534" y2="61.1393" gradientUnits="userSpaceOnUse">
<stop stop-color="#2E3D52"/>
<stop offset="0.209" stop-color="#36465C"/>
<stop offset="0.6008" stop-color="#495F7A"/>
<stop offset="1" stop-color="#6280A3"/>
</linearGradient>
<linearGradient id="paint9_linear" x1="58.813" y1="258" x2="58.813" y2="145.099" gradientUnits="userSpaceOnUse">
<stop stop-color="#2E3D52"/>
<stop offset="0.209" stop-color="#36465C"/>
<stop offset="0.6008" stop-color="#495F7A"/>
<stop offset="1" stop-color="#6280A3"/>
</linearGradient>
<linearGradient id="paint10_linear" x1="72.8306" y1="258" x2="72.8306" y2="145.099" gradientUnits="userSpaceOnUse">
<stop stop-color="#2E3D52"/>
<stop offset="0.209" stop-color="#36465C"/>
<stop offset="0.6008" stop-color="#495F7A"/>
<stop offset="1" stop-color="#6280A3"/>
</linearGradient>
<linearGradient id="paint11_linear" x1="36.4828" y1="236.104" x2="36.4828" y2="145.099" gradientUnits="userSpaceOnUse">
<stop stop-color="#2E3D52"/>
<stop offset="0.209" stop-color="#36465C"/>
<stop offset="0.6008" stop-color="#495F7A"/>
<stop offset="1" stop-color="#6280A3"/>
</linearGradient>
<linearGradient id="paint12_linear" x1="309.222" y1="258" x2="309.222" y2="63.1169" gradientUnits="userSpaceOnUse">
<stop stop-color="#2E3D52"/>
<stop offset="0.209" stop-color="#36465C"/>
<stop offset="0.6008" stop-color="#495F7A"/>
<stop offset="1" stop-color="#6280A3"/>
</linearGradient>
<linearGradient id="paint13_linear" x1="325.659" y1="258" x2="325.659" y2="63.1169" gradientUnits="userSpaceOnUse">
<stop stop-color="#2E3D52"/>
<stop offset="0.209" stop-color="#36465C"/>
<stop offset="0.6008" stop-color="#495F7A"/>
<stop offset="1" stop-color="#6280A3"/>
</linearGradient>
<linearGradient id="paint14_linear" x1="283.038" y1="220.204" x2="283.038" y2="63.1169" gradientUnits="userSpaceOnUse">
<stop stop-color="#2E3D52"/>
<stop offset="0.209" stop-color="#36465C"/>
<stop offset="0.6008" stop-color="#495F7A"/>
<stop offset="1" stop-color="#6280A3"/>
</linearGradient>
</defs>
</svg>
