<svg width="262" height="509" viewBox="0 0 262 509" fill="none" xmlns="http://www.w3.org/2000/svg">
<path d="M0 508.152L74.9748 95.1108H190.616L261.776 508.152" fill="url(#paint0_linear)"/>
<path d="M199.498 146.659L185.664 407.835L149.923 342.409L117.755 432.998L85.5869 387.703L0 508.152H261.776L199.498 146.659Z" fill="url(#paint1_linear)"/>
<path d="M30.0541 342.584L107.926 132.043V254.839L163.112 122.986L174.075 183.378L190.616 95.1108H74.9748L30.0541 342.584Z" fill="url(#paint2_linear)"/>
<path d="M96.2976 45.9747H85.5105V85.8022H96.2976V45.9747Z" fill="#2E3D52"/>
<path d="M98.3326 43.709H83.6735V45.97H98.3326V43.709Z" fill="#2E3D52"/>
<path d="M98.2337 85.8022H83.5746V88.0632H98.2337V85.8022Z" fill="#2E3D52"/>
<path d="M99.807 40.9627H82.0059V43.709H99.807V40.9627Z" fill="#2E3D52"/>
<path d="M99.807 88.0679H82.0059V90.8142H99.807V88.0679Z" fill="#2E3D52"/>
<path d="M88.4169 45.9747H87.1168V85.8022H88.4169V45.9747Z" fill="#2E3D52"/>
<path d="M94.5029 45.9747H93.2028V85.8022H94.5029V45.9747Z" fill="#2E3D52"/>
<path d="M91.4599 45.9747H90.1598V85.8022H91.4599V45.9747Z" fill="#2E3D52"/>
<path d="M117.047 45.9747H106.26V85.8022H117.047V45.9747Z" fill="#2E3D52"/>
<path d="M119.082 43.709H104.423V45.97H119.082V43.709Z" fill="#2E3D52"/>
<path d="M118.984 85.8022H104.324V88.0632H118.984V85.8022Z" fill="#2E3D52"/>
<path d="M120.557 40.9627H102.756V43.709H120.557V40.9627Z" fill="#2E3D52"/>
<path d="M120.557 88.0679H102.756V90.8142H120.557V88.0679Z" fill="#2E3D52"/>
<path d="M109.162 45.9747H107.862V85.8022H109.162V45.9747Z" fill="#2E3D52"/>
<path d="M115.248 45.9747H113.948V85.8022H115.248V45.9747Z" fill="#2E3D52"/>
<path d="M112.205 45.9747H110.905V85.8022H112.205V45.9747Z" fill="#2E3D52"/>
<path d="M137.797 45.9747H127.01V85.8022H137.797V45.9747Z" fill="#2E3D52"/>
<path d="M139.832 43.709H125.173V45.97H139.832V43.709Z" fill="#2E3D52"/>
<path d="M139.733 85.8022H125.074V88.0632H139.733V85.8022Z" fill="#2E3D52"/>
<path d="M141.307 40.9627H123.506V43.709H141.307V40.9627Z" fill="#2E3D52"/>
<path d="M141.307 88.0679H123.506V90.8142H141.307V88.0679Z" fill="#2E3D52"/>
<path d="M129.912 45.9747H128.612V85.8022H129.912V45.9747Z" fill="#2E3D52"/>
<path d="M135.998 45.9747H134.698V85.8022H135.998V45.9747Z" fill="#2E3D52"/>
<path d="M132.955 45.9747H131.655V85.8022H132.955V45.9747Z" fill="#2E3D52"/>
<path d="M158.543 45.9747H147.755V85.8022H158.543V45.9747Z" fill="#2E3D52"/>
<path d="M160.582 43.709H145.923V45.97H160.582V43.709Z" fill="#2E3D52"/>
<path d="M160.483 85.8022H145.824V88.0632H160.483V85.8022Z" fill="#2E3D52"/>
<path d="M162.052 40.9627H144.251V43.709H162.052V40.9627Z" fill="#2E3D52"/>
<path d="M162.052 88.0679H144.251V90.8142H162.052V88.0679Z" fill="#2E3D52"/>
<path d="M150.662 45.9747H149.362V85.8022H150.662V45.9747Z" fill="#2E3D52"/>
<path d="M156.748 45.9747H155.448V85.8022H156.748V45.9747Z" fill="#2E3D52"/>
<path d="M153.705 45.9747H152.405V85.8022H153.705V45.9747Z" fill="#2E3D52"/>
<path d="M179.292 45.9747H168.505V85.8022H179.292V45.9747Z" fill="#2E3D52"/>
<path d="M181.327 43.709H166.668V45.97H181.327V43.709Z" fill="#2E3D52"/>
<path d="M181.233 85.8022H166.574V88.0632H181.233V85.8022Z" fill="#2E3D52"/>
<path d="M182.802 40.9627H165.001V43.709H182.802V40.9627Z" fill="#2E3D52"/>
<path d="M182.802 88.0679H165.001V90.8142H182.802V88.0679Z" fill="#2E3D52"/>
<path d="M171.412 45.9747H170.112V85.8022H171.412V45.9747Z" fill="#2E3D52"/>
<path d="M177.498 45.9747H176.198V85.8022H177.498V45.9747Z" fill="#2E3D52"/>
<path d="M174.455 45.9747H173.155V85.8022H174.455V45.9747Z" fill="#2E3D52"/>
<path d="M186.73 35.0887H79.109V40.9627H186.73V35.0887Z" fill="#2E3D52"/>
<path d="M186.73 90.8142H79.109V96.6882H186.73V90.8142Z" fill="#2E3D52"/>
<path d="M190.023 96.6882H76.1036V102.562H190.023V96.6882Z" fill="#2E3D52"/>
<path d="M189.919 29.2147H76V35.0887H189.919V29.2147Z" fill="#2E3D52"/>
<path d="M132.917 0L76 29.2147H189.915L132.917 0Z" fill="#2E3D52"/>
<path d="M132.47 7.2637L89.7029 29.2148H175.298L132.47 7.2637Z" fill="#2E3D52"/>
<path d="M122.625 29.4926C122.625 29.4926 122.625 25.3191 122.625 22.0641C122.625 18.0508 125.578 13.1565 132.917 13.1565C139.828 13.1565 142.178 17.8953 142.178 22.5069C142.178 26.0775 142.178 29.4879 142.178 29.4879H122.625V29.4926Z" fill="#2E3D52"/>
<defs>
<linearGradient id="paint0_linear" x1="130.889" y1="508.151" x2="130.889" y2="95.1108" gradientUnits="userSpaceOnUse">
<stop stop-color="#6280A3"/>
<stop offset="1" stop-color="#2E3D52"/>
</linearGradient>
<linearGradient id="paint1_linear" x1="130.889" y1="508.151" x2="130.889" y2="146.658" gradientUnits="userSpaceOnUse">
<stop stop-color="#6280A3"/>
<stop offset="1" stop-color="#2E3D52"/>
</linearGradient>
<linearGradient id="paint2_linear" x1="110.334" y1="342.585" x2="110.334" y2="95.1108" gradientUnits="userSpaceOnUse">
<stop stop-color="#6280A3"/>
<stop offset="1" stop-color="#2E3D52"/>
</linearGradient>
</defs>
</svg>
