<svg width="90" height="60" viewBox="0 0 90 60" fill="none" xmlns="http://www.w3.org/2000/svg">
<g filter="url(#filter0_d)">
<path d="M24.7261 20.808L21.4381 21.48L18.8461 10.056L15.2701 21.24H14.4061L10.8301 10.056L8.21409 21.48L4.92609 20.808L10.0861 0.791998H10.9261L14.8381 12.696L18.7501 0.791998H19.5661L24.7261 20.808ZM41.8917 21H29.2917V1.032H32.4117V18.024H38.7717V1.032H41.8917V21ZM51.0607 21H47.8927V1.032H51.0607V21ZM69.2765 19.032L66.9965 21.528L55.8605 10.896L66.8765 0.527999L69.1805 3L60.2525 10.872L69.2765 19.032ZM85.2037 4.008H80.4277V21H77.2837V4.008H72.5077V1.032H85.2037V4.008ZM14.5124 27.984L9.94041 33.24H9.64041L5.05641 27.984L9.64041 22.764H9.94041L14.5124 27.984ZM12.4844 27.996L9.79641 24.828L7.09641 27.996L9.79641 31.176L12.4844 27.996ZM22.2899 27.324L17.1539 30.708V33H15.5939L15.6059 22.776H15.9659L22.2899 27.324ZM19.7819 27.288L17.1539 25.404V28.992L19.7819 27.288ZM29.4592 23.964L25.6072 27.204H29.0512V28.644H25.5952L29.4232 31.932L28.4032 33.264L22.7752 27.948L28.2832 22.74L29.4592 23.964ZM36.8922 33.132H36.4722L32.2242 27.18V33H30.6642V22.884H31.0842L35.3322 28.8V23.004H36.8922V33.132ZM48.892 33H47.32V28.62H43.744V33H42.172V23.016H43.744V27.12H47.32V23.016H48.892V33ZM59.4304 27.984L54.8584 33.24H54.5584L49.9744 27.984L54.5584 22.764H54.8584L59.4304 27.984ZM57.4024 27.996L54.7144 24.828L52.0144 27.996L54.7144 31.176L57.4024 27.996ZM66.8119 33H60.5119V23.016H62.0719V31.512H65.2519V23.016H66.8119V33ZM74.5403 29.988L69.8363 33.276L68.9123 32.028L72.1283 29.844L67.9523 25.944L72.5843 22.764L73.5563 23.988L70.3643 26.088L74.5403 29.988ZM81.2209 23.964L77.3689 27.204H80.8129V28.644H77.3569L81.1849 31.932L80.1649 33.264L74.5369 27.948L80.0449 22.74L81.2209 23.964ZM17.7781 41.064L11.8381 48.768H17.6881V51H7.17609L14.5021 41.46L8.72409 37.41L10.2361 35.556L17.7781 41.064ZM42.1131 43.476L35.7951 51.36H35.3091L29.0271 43.476L35.3091 35.664H35.7951L42.1131 43.476ZM39.0711 43.494L35.5611 38.796L32.0511 43.494L35.5611 48.21L39.0711 43.494ZM58.6924 51H56.3524V39.858L54.0304 42.036L52.4644 40.326L58.1524 35.592H58.6924V51ZM82.9076 43.926L76.1936 51.45L74.5916 49.704L79.2536 44.628H70.5776L76.7156 35.664H77.2376L82.9076 43.926ZM79.2356 42.486L76.9856 39.048L74.7356 42.486H79.2356Z" fill="white"/>
</g>
<defs>
<filter id="filter0_d" x="0.926147" y="0.528015" width="88.2776" height="58.922" filterUnits="userSpaceOnUse" color-interpolation-filters="sRGB">
<feFlood flood-opacity="0" result="BackgroundImageFix"/>
<feColorMatrix in="SourceAlpha" type="matrix" values="0 0 0 0 0 0 0 0 0 0 0 0 0 0 0 0 0 0 127 0"/>
<feOffset dy="4"/>
<feGaussianBlur stdDeviation="2"/>
<feColorMatrix type="matrix" values="0 0 0 0 0 0 0 0 0 0 0 0 0 0 0 0 0 0 0.25 0"/>
<feBlend mode="normal" in2="BackgroundImageFix" result="effect1_dropShadow"/>
<feBlend mode="normal" in="SourceGraphic" in2="effect1_dropShadow" result="shape"/>
</filter>
</defs>
</svg>
