<svg width="954" height="858" viewBox="0 0 954 858" fill="none" xmlns="http://www.w3.org/2000/svg">
<g clip-path="url(#clip0)">
<path d="M830.7 342.67H124.7V759.71H830.7V342.67Z" fill="#C1A05A"/>
<path d="M169.82 384.6H79.5701V717.79H169.82V384.6Z" fill="#FFD175"/>
<path d="M186.82 365.66H64.21V384.59H186.82V365.66Z" fill="#E3BB69"/>
<path d="M186 717.79H63.3899V736.72H186V717.79Z" fill="#E3BB69"/>
<path d="M199.15 342.67H50.25V365.66H199.15V342.67Z" fill="#FFD175"/>
<path d="M199.15 736.72H50.25V759.71H199.15V736.72Z" fill="#FFD175"/>
<path d="M103.88 384.6H93V717.79H103.88V384.6Z" fill="#E3BB69"/>
<path d="M154.79 384.6H143.91V717.79H154.79V384.6Z" fill="#E3BB69"/>
<path d="M129.33 384.6H118.45V717.79H129.33V384.6Z" fill="#E3BB69"/>
<path d="M343.4 384.6H253.15V717.79H343.4V384.6Z" fill="#FFD175"/>
<path d="M360.4 365.66H237.79V384.59H360.4V365.66Z" fill="#E3BB69"/>
<path d="M359.57 717.79H236.96V736.72H359.57V717.79Z" fill="#E3BB69"/>
<path d="M372.72 342.67H223.82V365.66H372.72V342.67Z" fill="#FFD175"/>
<path d="M372.72 736.72H223.82V759.71H372.72V736.72Z" fill="#FFD175"/>
<path d="M277.45 384.6H266.57V717.79H277.45V384.6Z" fill="#E3BB69"/>
<path d="M328.36 384.6H317.48V717.79H328.36V384.6Z" fill="#E3BB69"/>
<path d="M302.91 384.6H292.03V717.79H302.91V384.6Z" fill="#E3BB69"/>
<path d="M516.97 384.6H426.72V717.79H516.97V384.6Z" fill="#FFD175"/>
<path d="M533.97 365.66H411.36V384.59H533.97V365.66Z" fill="#E3BB69"/>
<path d="M533.15 717.79H410.54V736.72H533.15V717.79Z" fill="#E3BB69"/>
<path d="M546.3 342.67H397.4V365.66H546.3V342.67Z" fill="#FFD175"/>
<path d="M546.3 736.72H397.4V759.71H546.3V736.72Z" fill="#FFD175"/>
<path d="M451.02 384.6H440.14V717.79H451.02V384.6Z" fill="#E3BB69"/>
<path d="M501.94 384.6H491.06V717.79H501.94V384.6Z" fill="#E3BB69"/>
<path d="M476.48 384.6H465.6V717.79H476.48V384.6Z" fill="#E3BB69"/>
<path d="M690.54 384.6H600.29V717.79H690.54V384.6Z" fill="#FFD175"/>
<path d="M707.54 365.66H584.93V384.59H707.54V365.66Z" fill="#E3BB69"/>
<path d="M706.72 717.79H584.11V736.72H706.72V717.79Z" fill="#E3BB69"/>
<path d="M719.87 342.67H570.97V365.66H719.87V342.67Z" fill="#FFD175"/>
<path d="M719.87 736.72H570.97V759.71H719.87V736.72Z" fill="#FFD175"/>
<path d="M624.6 384.6H613.72V717.79H624.6V384.6Z" fill="#E3BB69"/>
<path d="M675.51 384.6H664.63V717.79H675.51V384.6Z" fill="#E3BB69"/>
<path d="M650.05 384.6H639.17V717.79H650.05V384.6Z" fill="#E3BB69"/>
<path d="M864.12 384.6H773.87V717.79H864.12V384.6Z" fill="#FFD175"/>
<path d="M881.12 365.66H758.51V384.59H881.12V365.66Z" fill="#E3BB69"/>
<path d="M880.3 717.79H757.69V736.72H880.3V717.79Z" fill="#E3BB69"/>
<path d="M893.45 342.67H744.55V365.66H893.45V342.67Z" fill="#FFD175"/>
<path d="M893.45 736.72H744.55V759.71H893.45V736.72Z" fill="#FFD175"/>
<path d="M798.17 384.6H787.29V717.79H798.17V384.6Z" fill="#E3BB69"/>
<path d="M849.08 384.6H838.2V717.79H849.08V384.6Z" fill="#E3BB69"/>
<path d="M823.63 384.6H812.75V717.79H823.63V384.6Z" fill="#E3BB69"/>
<path d="M926.3 293.54H26.01V342.67H926.3V293.54Z" fill="#E3BB69"/>
<path d="M926.3 759.71H26.01V808.84H926.3V759.71Z" fill="#E3BB69"/>
<path d="M953.85 808.84H0.879883V857.97H953.85V808.84Z" fill="#C1A05A"/>
<path d="M952.97 244.41H0V293.54H952.97V244.41Z" fill="#C1A05A"/>
<path d="M476.15 0L0 244.41H952.97L476.15 0Z" fill="#FFD175"/>
<path d="M472.42 60.76L114.64 244.41H830.7L472.42 60.76Z" fill="#E3BB69"/>
<path d="M390.05 246.7C390.05 246.7 390.05 211.8 390.05 184.56C390.05 150.97 414.75 110.05 476.15 110.05C533.97 110.05 553.64 149.68 553.64 188.29C553.64 218.15 553.64 246.7 553.64 246.7H390.05Z" fill="#C1A05A"/>
</g>
<defs>
<clipPath id="clip0">
<rect width="953.85" height="857.97" fill="white"/>
</clipPath>
</defs>
</svg>
