<svg width="375" height="150" viewBox="0 0 375 150" fill="none" xmlns="http://www.w3.org/2000/svg">
<path d="M-5.27028 96.3843C58.6369 44.4656 136.556 64.5022 215.493 102.126C295.223 140.127 377.095 78.5596 377.095 78.5596L414 78.2539V220H-40V96.1897L-5.27028 96.3843Z" fill="#2E3D52"/>
<path d="M-16 121H28.6808L15.8835 70.9799H-3.8548L-16 121Z" fill="#2E3D52"/>
<path d="M-3.8548 70.9799L-3.08031 102.074L2.31872 88.2634L3.44682 109.62L8.28178 100.147L18.0311 121H-16L-3.8548 70.9799Z" fill="#2E3D52"/>
<path d="M3.44683 70.9799L6.99155 93.6424L12.7131 76.3813L26.2003 111.299L15.8835 70.9799H3.44683Z" fill="#2E3D52"/>
<path d="M102.042 121L82.1345 24H51.4308L32.5377 121" fill="#2E3D52"/>
<path d="M49.0729 36.1054L52.7452 97.4404L62.2358 82.0766L70.7776 103.35L79.3177 92.7126L102.042 121H32.5377L49.0729 36.1054Z" fill="#2E3D52"/>
<path d="M94.0624 82.1178L73.3874 32.6735V61.5107L58.7342 30.5459L55.8225 44.7291L51.4308 24H82.1345L94.0624 82.1178Z" fill="#2E3D52"/>
<path d="M130.089 121L110.184 46.9855H79.4781L60.585 121" fill="#2E3D52"/>
<path d="M77.1201 56.2228L80.7925 103.024L90.2831 91.3L98.8249 107.532L107.365 99.4167L130.089 121H60.585L77.1201 56.2228Z" fill="#2E3D52"/>
<path d="M122.11 91.3309L101.435 53.6037V75.6079L86.7815 51.9814L83.8698 62.803L79.4781 46.9855H110.184L122.11 91.3309Z" fill="#2E3D52"/>
<path d="M105.318 121H150L137.203 78.5518H117.464L105.318 121Z" fill="#2E3D52"/>
<path d="M117.464 78.5518L118.237 104.938L123.636 93.2196L124.764 111.342L129.599 103.302L139.35 121H105.318L117.464 78.5518Z" fill="#2E3D52"/>
<path d="M124.764 78.5518L128.311 97.7841L134.032 83.1352L147.518 112.766L137.203 78.5518H124.764Z" fill="#2E3D52"/>
<path d="M58.7341 121L43.7273 47.7298H20.5839L6.34122 121" fill="#2E3D52"/>
<path d="M6.34122 121L20.5839 47.7298L21.4895 93.2747L27.82 73.0474L29.143 104.33L34.8129 90.4528L46.2457 121L6.34122 121Z" fill="#2E3D52"/>
<path d="M29.143 47.7298L33.3001 80.9269L40.0101 55.6419L55.8225 106.789L43.7273 47.7298H29.143Z" fill="#2E3D52"/>
<path d="M57.861 11.0103H55.2776V20.5484H57.861V11.0103Z" fill="#2E3D52"/>
<path d="M58.3484 10.4677H54.8377V11.0092H58.3484V10.4677Z" fill="#2E3D52"/>
<path d="M58.3247 20.5485H54.814V21.09H58.3247V20.5485Z" fill="#2E3D52"/>
<path d="M58.7015 9.81H54.4384V10.4677H58.7015V9.81Z" fill="#2E3D52"/>
<path d="M58.7015 21.091H54.4384V21.7487H58.7015V21.091Z" fill="#2E3D52"/>
<path d="M55.9736 11.0103H55.6623V20.5484H55.9736V11.0103Z" fill="#2E3D52"/>
<path d="M57.4312 11.0103H57.1199V20.5484H57.4312V11.0103Z" fill="#2E3D52"/>
<path d="M56.7024 11.0103H56.3911V20.5484H56.7024V11.0103Z" fill="#2E3D52"/>
<path d="M62.8303 11.0103H60.2469V20.5484H62.8303V11.0103Z" fill="#2E3D52"/>
<path d="M63.3176 10.4677H59.8069V11.0092H63.3176V10.4677Z" fill="#2E3D52"/>
<path d="M63.294 20.5485H59.7833V21.09H63.294V20.5485Z" fill="#2E3D52"/>
<path d="M63.6708 9.81H59.4077V10.4677H63.6708V9.81Z" fill="#2E3D52"/>
<path d="M63.6708 21.091H59.4077V21.7487H63.6708V21.091Z" fill="#2E3D52"/>
<path d="M60.9419 11.0103H60.6305V20.5484H60.9419V11.0103Z" fill="#2E3D52"/>
<path d="M62.3994 11.0103H62.088V20.5484H62.3994V11.0103Z" fill="#2E3D52"/>
<path d="M61.6706 11.0103H61.3593V20.5484H61.6706V11.0103Z" fill="#2E3D52"/>
<path d="M67.7997 11.0103H65.2163V20.5484H67.7997V11.0103Z" fill="#2E3D52"/>
<path d="M68.2869 10.4677H64.7762V11.0092H68.2869V10.4677Z" fill="#2E3D52"/>
<path d="M68.2633 20.5485H64.7526V21.09H68.2633V20.5485Z" fill="#2E3D52"/>
<path d="M68.64 9.81H64.3769V10.4677H68.64V9.81Z" fill="#2E3D52"/>
<path d="M68.64 21.091H64.3769V21.7487H68.64V21.091Z" fill="#2E3D52"/>
<path d="M65.9112 11.0103H65.5998V20.5484H65.9112V11.0103Z" fill="#2E3D52"/>
<path d="M67.3687 11.0103H67.0573V20.5484H67.3687V11.0103Z" fill="#2E3D52"/>
<path d="M66.6399 11.0103H66.3286V20.5484H66.6399V11.0103Z" fill="#2E3D52"/>
<path d="M72.7678 11.0103H70.1844V20.5484H72.7678V11.0103Z" fill="#2E3D52"/>
<path d="M73.2563 10.4677H69.7456V11.0092H73.2563V10.4677Z" fill="#2E3D52"/>
<path d="M73.2326 20.5485H69.7219V21.09H73.2326V20.5485Z" fill="#2E3D52"/>
<path d="M73.6082 9.81H69.3451V10.4677H73.6082V9.81Z" fill="#2E3D52"/>
<path d="M73.6082 21.091H69.3451V21.7487H73.6082V21.091Z" fill="#2E3D52"/>
<path d="M70.8804 11.0103H70.5691V20.5484H70.8804V11.0103Z" fill="#2E3D52"/>
<path d="M72.338 11.0103H72.0266V20.5484H72.338V11.0103Z" fill="#2E3D52"/>
<path d="M71.6092 11.0103H71.2979V20.5484H71.6092V11.0103Z" fill="#2E3D52"/>
<path d="M77.7372 11.0103H75.1538V20.5484H77.7372V11.0103Z" fill="#2E3D52"/>
<path d="M78.2244 10.4677H74.7137V11.0092H78.2244V10.4677Z" fill="#2E3D52"/>
<path d="M78.2018 20.5485H74.6912V21.09H78.2018V20.5485Z" fill="#2E3D52"/>
<path d="M78.5775 9.81H74.3144V10.4677H78.5775V9.81Z" fill="#2E3D52"/>
<path d="M78.5775 21.091H74.3144V21.7487H78.5775V21.091Z" fill="#2E3D52"/>
<path d="M75.8498 11.0103H75.5385V20.5484H75.8498V11.0103Z" fill="#2E3D52"/>
<path d="M77.3073 11.0103H76.9959V20.5484H77.3073V11.0103Z" fill="#2E3D52"/>
<path d="M76.5786 11.0103H76.2672V20.5484H76.5786V11.0103Z" fill="#2E3D52"/>
<path d="M79.5184 8.40326H53.7446V9.81001H79.5184V8.40326Z" fill="#2E3D52"/>
<path d="M79.5184 21.7487H53.7446V23.1555H79.5184V21.7487Z" fill="#2E3D52"/>
<path d="M80.3069 23.1555H53.0248V24.5623H80.3069V23.1555Z" fill="#2E3D52"/>
<path d="M80.2821 6.99652H53V8.40327H80.2821V6.99652Z" fill="#2E3D52"/>
<path d="M66.6309 0L53 6.99651H80.281L66.6309 0Z" fill="#2E3D52"/>
<path d="M66.5237 1.73956L56.2816 6.99653H76.7804L66.5237 1.73956Z" fill="#2E3D52"/>
<path d="M64.166 7.06309C64.166 7.06309 64.166 6.06359 64.166 5.28407C64.166 4.32292 64.8733 3.15082 66.6309 3.15082C68.2859 3.15082 68.8488 4.28569 68.8488 5.39011C68.8488 6.24521 68.8488 7.06196 68.8488 7.06196H64.166V7.06309Z" fill="#2E3D52"/>
</svg>
