<svg width="100" height="56" viewBox="0 0 100 56" fill="none" xmlns="http://www.w3.org/2000/svg">
<path d="M76.3095 45.544H23.445C19.8961 45.544 16.9922 42.6401 16.9922 39.0912V9.16412C16.9922 5.61522 19.8961 2.71133 23.445 2.71133H76.3095C79.8584 2.71133 82.7623 5.61522 82.7623 9.16412V39.0912C82.7623 42.6401 79.8588 45.544 76.3095 45.544Z" fill="#3E4651"/>
<path d="M53.4542 51.2947H46.3002C45.994 51.2947 45.7434 51.0441 45.7434 50.7379V43.5839C45.7434 43.2777 45.994 43.0271 46.3002 43.0271H53.4542C53.7605 43.0271 54.0111 43.2777 54.0111 43.5839V50.7379C54.0111 51.0441 53.7605 51.2947 53.4542 51.2947Z" fill="#2E3D52"/>
<path d="M59.8755 55.4167H39.879C38.3988 55.4167 37.1872 54.2055 37.1872 52.7248C37.1872 51.2441 38.3983 50.033 39.879 50.033H59.8755C61.3562 50.033 62.5673 51.2441 62.5673 52.7248C62.5673 54.2055 61.3557 55.4167 59.8755 55.4167Z" fill="#2E3D52"/>
<path d="M14.8558 24.511C14.8558 24.511 5.02629 29.0979 9.28004 33.8927C13.5338 38.6875 28.6746 30.7586 28.6746 30.7586C28.6746 30.7586 14.1213 45.3848 3.4291 38.4258C-7.26305 31.4667 10.0257 24.9657 14.8558 24.511Z" fill="#2E3D52"/>
<path d="M81.7887 4.81988C81.7887 4.81988 92.0712 1.36658 92.2953 7.7725C92.5194 14.1784 76.0853 18.8721 76.0853 18.8721C76.0853 18.8721 96.7105 19.4345 99.6585 7.02263C102.607 -5.38968 85.6012 1.81993 81.7887 4.81988Z" fill="#2E3D52"/>
<path d="M52.3266 10.9386L42.5333 35.5567C42.0266 36.8305 42.698 38.268 44.0006 38.6968C45.1954 39.0903 46.4896 38.4861 46.9555 37.3177L56.7678 12.7042C57.3 11.3697 56.5372 9.87131 55.1446 9.51679L55.1256 9.51215C53.9669 9.21703 52.7688 9.82722 52.3266 10.9386Z" fill="#6280A3"/>
<path d="M41.227 17.9282C39.0642 19.2363 35.9515 21.1124 33.5961 22.5309C32.0959 23.4344 32.1052 25.6135 33.6137 26.504L41.0897 30.9183C42.3523 31.664 42.6112 33.3813 41.6247 34.4662C40.8804 35.2843 39.6614 35.4611 38.7152 34.8885L24.6051 26.342C23.1165 25.4404 23.1192 23.2799 24.6102 22.3825L38.7394 13.8731C39.6428 13.3288 40.7996 13.4648 41.5528 14.2035L41.6498 14.2986C42.7277 15.3561 42.5193 17.1468 41.227 17.9282Z" fill="#6280A3"/>
<path d="M58.8693 31.4951C60.9639 30.0802 63.9787 28.0506 66.2599 26.516C67.7133 25.5383 67.5945 23.363 66.0432 22.549L58.3551 18.5148C57.0568 17.8336 56.712 16.1311 57.6429 14.9984C58.3449 14.1441 59.5537 13.906 60.5273 14.4309L75.0482 22.259C76.58 23.085 76.6858 25.2427 75.2417 26.214L61.557 35.4212C60.6818 36.0101 59.5194 35.9321 58.7305 35.2324L58.6289 35.1419C57.4995 34.1396 57.6178 32.3405 58.8693 31.4951Z" fill="#6280A3"/>
</svg>
