<svg width="45" height="55" viewBox="0 0 45 55" fill="none" xmlns="http://www.w3.org/2000/svg">
<path d="M2.47522 39.47H41.8773C42.6615 39.47 43.2971 40.2298 43.2971 41.1674C43.2971 42.1047 42.6615 42.8648 41.8773 42.8648H10.2849C9.50069 42.8648 8.86507 43.6247 8.86507 44.5623V49.6541C8.86507 50.5914 9.50069 51.3515 10.2849 51.3515H41.8777C42.6619 51.3515 43.2975 52.1113 43.2975 53.0489V53.3026C43.2975 54.2398 42.6619 55 41.8777 55H2.47522C1.69104 55 1.05542 54.2402 1.05542 53.3026V41.1678C1.05542 40.2302 1.69104 39.47 2.47522 39.47Z" fill="#2E3D52"/>
<path d="M10.8751 43.8623H40.1845C40.5482 43.8623 40.8432 44.235 40.8432 44.6943C40.8432 45.154 40.5482 45.5263 40.1845 45.5263H10.8751C10.5114 45.5263 10.2164 45.1537 10.2164 44.6943C10.2164 44.235 10.5114 43.8623 10.8751 43.8623Z" fill="#2E3D52"/>
<path d="M10.8751 46.2549H40.1845C40.5482 46.2549 40.8432 46.6276 40.8432 47.087C40.8432 47.5467 40.5482 47.919 40.1845 47.919H10.8751C10.5114 47.919 10.2164 47.5463 10.2164 47.087C10.2164 46.6276 10.5114 46.2549 10.8751 46.2549Z" fill="#2E3D52"/>
<path d="M10.8751 48.6476H40.1845C40.5482 48.6476 40.8432 49.0202 40.8432 49.4796C40.8432 49.9393 40.5482 50.3116 40.1845 50.3116H10.8751C10.5114 50.3116 10.2164 49.939 10.2164 49.4796C10.2164 49.0199 10.5114 48.6476 10.8751 48.6476Z" fill="#2E3D52"/>
<path d="M38.5279 7.03422H41.984L42.5296 3.56647L38.5279 2.79578L37.1637 4.91518L38.5279 7.03422Z" fill="#2E3D52"/>
<path d="M41.1062 0.101596C41.1062 0.101596 44.8035 -0.0903509 44.9854 2.61541C45.1673 5.32082 43.6212 7.03455 41.984 7.03455C40.3469 7.03455 40.1083 5.05049 40.7735 4.14881C41.4388 3.24713 36.618 3.56681 36.618 3.56681L41.1062 0.101596Z" fill="#2E3D52"/>
<path d="M41.1062 0.101598C41.1062 0.101598 38.5279 1.3527 38.5279 5.14049C38.5279 8.92827 38.5279 25.6125 38.5279 29.8509C38.5279 34.0893 36.6181 38.0578 33.7075 38.0578C30.7969 38.0578 4.60374 38.0578 1.96612 38.0578C-0.671491 38.0578 -0.853357 30.7529 3.60329 31.0236V5.73085C3.60329 5.49826 3.64025 5.26749 3.71343 5.04651C4.11559 3.83205 5.68798 0 9.51487 0C14.0626 0 41.1062 0.101598 41.1062 0.101598Z" fill="#2E3D52"/>
<path d="M34.708 31.0232C34.708 31.0232 37.1637 31.1135 36.0722 33.4583H29.1602L34.708 31.0232Z" fill="#2E3D52"/>
<path d="M3.60332 31.0234H34.7079C34.7079 31.0234 30.615 34.1798 33.7075 38.0575H1.96616C1.96616 38.0575 -0.512638 37.756 0.0962667 33.5484C0.511229 30.6808 3.60332 31.0234 3.60332 31.0234Z" fill="#2E3D52"/>
<path d="M21.0545 21.6854H10.4971C9.21012 21.6854 8.15735 20.6414 8.15735 19.3653V8.89672C8.15735 7.62058 9.21012 6.57666 10.4971 6.57666H21.0545C22.3414 6.57666 23.3942 7.62058 23.3942 8.89672V19.3653C23.3942 20.6411 22.3414 21.6854 21.0545 21.6854Z" fill="#6280A3"/>
<path d="M34.06 25.3701H9.25587C8.65172 25.3701 8.15735 24.8799 8.15735 24.2808C8.15735 23.6817 8.65172 23.1915 9.25587 23.1915H34.06C34.6641 23.1915 35.1585 23.6817 35.1585 24.2808C35.1585 24.8799 34.6641 25.3701 34.06 25.3701Z" fill="#6280A3"/>
<path d="M34.0698 28.7319H9.24635C8.64769 28.7319 8.15771 28.246 8.15771 27.6524C8.15771 27.0588 8.64769 26.5729 9.24635 26.5729H34.0698C34.6685 26.5729 35.1585 27.0588 35.1585 27.6524C35.1585 28.246 34.6685 28.7319 34.0698 28.7319Z" fill="#6280A3"/>
</svg>
