<svg width="55" height="69" viewBox="0 0 55 69" fill="none" xmlns="http://www.w3.org/2000/svg">
<path d="M50.7294 64.2796H15.6654C13.3163 64.2796 11.3947 62.358 11.3947 60.009C11.3947 57.6599 13.3163 55.7383 15.6654 55.7383H50.7294C53.0784 55.7383 55 57.6599 55 60.009C55 62.358 53.0784 64.2796 50.7294 64.2796Z" fill="#2E3D52"/>
<path d="M54.4109 32.821C54.4109 39.4407 51.3787 45.3525 46.6271 49.2426H19.7677C15.0166 45.3525 11.9839 39.4411 11.9839 32.821C11.9839 21.1053 21.4819 11.6073 33.1976 11.6073C44.9133 11.6073 54.4109 21.1053 54.4109 32.821Z" fill="#2E3D52"/>
<path d="M48.6338 52.4904C48.6338 53.1523 48.3655 53.7506 47.932 54.1846C47.498 54.6186 46.8997 54.8865 46.2378 54.8865H19.3451C18.0218 54.8865 16.949 53.8137 16.949 52.4904C16.949 51.8286 17.2173 51.2298 17.6509 50.7963C18.0844 50.3623 18.6832 50.0944 19.3451 50.0944H46.2383C47.5611 50.0944 48.6338 51.1672 48.6338 52.4904Z" fill="#2E3D52"/>
<path d="M27.8519 61.5371C29.9701 59.9481 36.7999 60.0977 38.7189 61.5371C40.6379 62.9764 35.3114 68.8591 33.2854 68.8591C31.2594 68.8591 25.4116 63.3678 27.8519 61.5371Z" fill="#2E3D52"/>
<path d="M14.0795 61.6753C16.1976 60.0864 18.6741 60.0977 20.5926 61.5371C22.5116 62.9764 17.1852 68.8591 15.1592 68.8591C13.1333 68.8591 11.6391 63.5056 14.0795 61.6753Z" fill="#2E3D52"/>
<path d="M52.5566 61.6753C50.4385 60.0864 47.962 60.0977 46.0435 61.5371C44.1245 62.9764 49.4509 68.8591 51.4769 68.8591C53.5028 68.8591 54.997 63.5056 52.5566 61.6753Z" fill="#2E3D52"/>
<path d="M18.9385 21.8184C23.871 16.4693 27.6916 21.7488 22.4121 25.0141C17.9088 27.7989 17.6187 34.1842 19.703 39.8807C21.7872 45.5773 16.9491 40.8535 15.4623 35.0874C14.4187 31.0398 16.0472 24.9541 18.9385 21.8184Z" fill="#6280A3"/>
<path d="M35.2543 20.3412C35.2543 20.3412 41.1548 18.4766 41.1953 9.49219C41.1953 9.49219 41.5862 19.7159 47.9959 19.7159C47.9959 19.7159 41.6249 22.5298 41.6249 30.4249C41.6253 30.4249 40.4134 20.3412 35.2543 20.3412Z" fill="#6280A3"/>
<path d="M45.162 28.5616C45.162 28.5616 48.3777 27.5454 48.3999 22.649C48.3999 22.649 48.6129 28.2207 52.1061 28.2207C52.1061 28.2207 48.6343 29.7544 48.6343 34.0572C48.6338 34.0572 47.9737 28.5616 45.162 28.5616Z" fill="#6280A3"/>
<path d="M6.83532 4.64102L15.7362 0.214256C17.0808 -0.454541 18.6593 0.523433 18.6593 2.02497V12.4492C18.6593 14.069 16.8499 15.0317 15.5066 14.1264L6.60572 8.12894C5.31987 7.26272 5.44685 5.33112 6.83532 4.64102Z" fill="#2E3D52"/>
<path d="M0.0368728 20.8578L1.89063 11.0911C2.17067 9.61566 3.90398 8.94947 5.10025 9.857L13.4041 16.1579C14.6943 17.1372 14.3677 19.1601 12.8345 19.6833L2.6764 23.149C1.20922 23.6495 -0.252302 22.3811 0.0368728 20.8578Z" fill="#2E3D52"/>
</svg>
