<svg width="89" height="56" viewBox="0 0 89 56" fill="none" xmlns="http://www.w3.org/2000/svg">
<path d="M69.8613 55.42H21.4344C18.4747 55.42 16.0536 52.9988 16.0536 50.0392C16.0536 47.0796 18.4747 44.6584 21.4344 44.6584H69.8613C72.8209 44.6584 75.2421 47.0796 75.2421 50.0392C75.2421 52.9984 72.8205 55.42 69.8613 55.42Z" fill="#2E3D52"/>
<path d="M71.7684 43.1079H19.9673C18.0569 43.1079 16.4937 41.5446 16.4937 39.6343C16.4937 37.7239 18.0569 36.1606 19.9673 36.1606H71.7684C73.6788 36.1606 75.242 37.7239 75.242 39.6343C75.242 41.5446 73.6788 43.1079 71.7684 43.1079Z" fill="#2E3D52"/>
<path d="M0.397583 17.7623C-0.191712 17.1816 -0.115952 16.2085 0.55863 15.729C8.34421 10.1936 21.5201 4.22758 40.7985 9.47588C58.7291 14.3572 74.1574 4.34281 77.5992 1.87131C78.0402 1.55466 78.629 1.53651 79.0881 1.8264C79.8816 2.32768 79.9224 3.47089 79.1657 4.02616C74.7054 7.29699 60.6835 15.8878 41.0199 11.75C20.2834 7.38636 5.6908 15.5947 2.06385 17.9388C1.53943 18.2776 0.849874 18.2078 0.404841 17.7695L0.397583 17.7623Z" fill="#6280A3"/>
<path d="M4.73039 27.1524C4.10163 26.6149 4.10843 25.6391 4.74718 25.1128C12.1218 19.0411 24.8431 12.1583 44.4445 16.0307C62.675 19.6322 77.357 8.55224 80.6156 5.84348C81.033 5.49644 81.6191 5.43701 82.0977 5.69378C82.9247 6.13745 83.0463 7.27521 82.3304 7.88265C78.1123 11.4606 64.7328 21.0213 44.826 18.284C23.8328 15.3974 9.85712 24.617 6.40528 27.2114C5.90581 27.5866 5.21353 27.5657 4.73856 27.1597L4.73039 27.1524Z" fill="#6280A3"/>
<path d="M8.62955 31.9915C8.04661 31.4045 8.13326 30.4323 8.81238 29.9601C16.6574 24.5095 29.8972 18.6868 49.1181 24.1438C66.9947 29.2193 82.5309 19.3728 85.9991 16.9385C86.4437 16.6264 87.0325 16.615 87.4885 16.9099C88.2764 17.4198 88.305 18.5635 87.542 19.1101C83.0463 22.3324 68.9322 30.7708 49.3149 26.4198C28.627 21.8316 13.9459 29.8812 10.294 32.1857C9.76595 32.5191 9.07731 32.4416 8.63727 31.9983L8.62955 31.9915Z" fill="#6280A3"/>
<path d="M18.183 24.4623C16.1919 22.4454 7.88373 24.6111 7.40694 29.1866C6.93016 33.7622 12.8417 37.4236 20.4168 34.1582C27.9919 30.8928 19.4224 9.33163 19.4224 9.33163L33.0746 5.61259L37.2055 19.9457C37.2055 19.9457 33.0029 16.6345 29.6173 20.4511C26.2317 24.2677 30.0546 31.415 37.8633 30.186C45.6721 28.9571 43.3244 20.124 43.3244 20.124L36.1499 0L12.888 6.59112L18.183 24.4623Z" fill="#2E3D52"/>
<path d="M56.8927 24.5331C56.6174 21.8642 50.2095 21.0209 48.2148 26.6503C46.2201 32.2796 54.3985 35.8631 60.1123 34.3587C65.826 32.8544 62.4899 12.4832 62.1723 9.18193C62.1723 9.18193 72.5446 10.3823 69.003 19.1931C65.4618 28.0035 73.0963 21.6202 76.7809 17.2474C81.5351 11.6053 69.7674 -1.85271 54.3319 1.13005L56.8927 24.5331Z" fill="#2E3D52"/>
</svg>
